<svg width="30" height="30" viewBox="0 0 30 30" fill="none" xmlns="http://www.w3.org/2000/svg">
<g clip-path="url(#clip0)">
<path d="M0.56875 20.6398L14.28 29.7823C14.7475 30.0698 15.2475 30.0736 15.72 29.7823L29.4312 20.6398C29.7825 20.4061 30 19.9873 30 19.5686V10.4286C30 10.0098 29.7825 9.59107 29.4312 9.35733L15.72 0.216075C15.2525 -0.0714248 14.7525 -0.0739248 14.28 0.216075L0.56875 9.35733C0.2175 9.59107 0 10.0098 0 10.4286V19.5686C0 19.9873 0.2175 20.4061 0.56875 20.6398ZM13.7113 26.2998L3.61625 19.5698L8.12 16.5561L13.7113 20.2898V26.2998ZM16.2887 26.2998V20.2898L21.88 16.5561L26.3838 19.5698L16.2887 26.2998ZM27.4225 17.1573L24.1912 14.9986L27.4225 12.8386V17.1573ZM16.2887 3.69858L26.3838 10.4286L21.88 13.4423L16.2887 9.70858V3.69858ZM15 11.9511L19.5537 14.9986L15 18.0461L10.4463 14.9986L15 11.9511ZM13.7113 3.69858V9.70858L8.12 13.4423L3.61625 10.4286L13.7113 3.69858ZM2.57875 12.8411V12.8398L5.81 14.9998L2.57875 17.1598V12.8411Z" fill="white"/>
</g>
<defs>
<clipPath id="clip0">
<rect width="30" height="30" fill="white"/>
</clipPath>
</defs>
</svg>
