<svg width="30" height="30" viewBox="0 0 30 30" fill="none" xmlns="http://www.w3.org/2000/svg">
<g clip-path="url(#clip0)">
<path d="M29.9705 8.82008C29.9003 7.22607 29.6425 6.1302 29.2732 5.18061C28.8923 4.17264 28.3063 3.27022 27.5384 2.52002C26.7882 1.75816 25.8799 1.16615 24.8836 0.79117C23.9285 0.421912 22.8383 0.16414 21.2443 0.0938599C19.6384 0.0176273 19.1286 0 15.0555 0C10.9825 0 10.4727 0.0176273 8.87269 0.0879078C7.27868 0.158188 6.1828 0.416188 5.23345 0.785218C4.22525 1.16615 3.32283 1.7522 2.57263 2.52002C1.81077 3.27022 1.21899 4.1786 0.843782 5.17488C0.474524 6.1302 0.216753 7.22011 0.146472 8.81413C0.0702396 10.42 0.0526123 10.9299 0.0526123 15.0029C0.0526123 19.076 0.0702396 19.5858 0.14052 21.1858C0.2108 22.7798 0.468801 23.8757 0.838059 24.8253C1.21899 25.8332 1.81077 26.7356 2.57263 27.4858C3.32283 28.2477 4.23121 28.8397 5.22749 29.2147C6.1828 29.584 7.27272 29.8417 8.86697 29.912C10.4667 29.9825 10.9768 29.9999 15.0498 29.9999C19.1229 29.9999 19.6327 29.9825 21.2327 29.912C22.8267 29.8417 23.9225 29.584 24.8719 29.2147C26.8881 28.4352 28.4821 26.8412 29.2616 24.8253C29.6306 23.8699 29.8886 22.7798 29.9589 21.1858C30.0292 19.5858 30.0468 19.076 30.0468 15.0029C30.0468 10.9299 30.0408 10.42 29.9705 8.82008ZM27.269 21.0686C27.2044 22.5337 26.9583 23.3249 26.7532 23.8523C26.2491 25.1593 25.2119 26.1965 23.9049 26.7006C23.3775 26.9057 22.5806 27.1518 21.1212 27.2162C19.5388 27.2867 19.0643 27.3041 15.0615 27.3041C11.0587 27.3041 10.5782 27.2867 9.00158 27.2162C7.53645 27.1518 6.74528 26.9057 6.21783 26.7006C5.56745 26.4602 4.97545 26.0793 4.49493 25.5812C3.99679 25.0947 3.61585 24.5086 3.37548 23.8583C3.17036 23.3308 2.92427 22.5337 2.85994 21.0745C2.78943 19.4922 2.77203 19.0174 2.77203 15.0146C2.77203 11.0118 2.78943 10.5313 2.85994 8.95492C2.92427 7.48979 3.17036 6.69862 3.37548 6.17117C3.61585 5.52056 3.99679 4.92879 4.50088 4.44804C4.98712 3.9499 5.57317 3.56896 6.22378 3.32882C6.75123 3.1237 7.54835 2.87761 9.00753 2.81305C10.5899 2.74277 11.0647 2.72514 15.0672 2.72514C19.0759 2.72514 19.5505 2.74277 21.1271 2.81305C22.5923 2.87761 23.3834 3.1237 23.9109 3.32882C24.5612 3.56896 25.1532 3.9499 25.6338 4.44804C26.1319 4.93451 26.5128 5.52056 26.7532 6.17117C26.9583 6.69862 27.2044 7.49551 27.269 8.95492C27.3393 10.5373 27.3569 11.0118 27.3569 15.0146C27.3569 19.0174 27.3393 19.4862 27.269 21.0686Z" fill="white"/>
<path d="M15.0556 7.29639C10.801 7.29639 7.349 10.7481 7.349 15.003C7.349 19.2578 10.801 22.7096 15.0556 22.7096C19.3104 22.7096 22.7622 19.2578 22.7622 15.003C22.7622 10.7481 19.3104 7.29639 15.0556 7.29639ZM15.0556 20.002C12.2954 20.002 10.0565 17.7634 10.0565 15.003C10.0565 12.2426 12.2954 10.0039 15.0556 10.0039C17.816 10.0039 20.0547 12.2426 20.0547 15.003C20.0547 17.7634 17.816 20.002 15.0556 20.002Z" fill="white"/>
<path d="M24.8663 6.99164C24.8663 7.98518 24.0607 8.79077 23.0669 8.79077C22.0734 8.79077 21.2678 7.98518 21.2678 6.99164C21.2678 5.99787 22.0734 5.1925 23.0669 5.1925C24.0607 5.1925 24.8663 5.99787 24.8663 6.99164Z" fill="white"/>
</g>
<defs>
<clipPath id="clip0">
<rect width="30" height="30" fill="white"/>
</clipPath>
</defs>
</svg>
